<svg xmlns="http://www.w3.org/2000/svg" viewBox="0 0 761.74 223.17"><defs><style>.cls-1,.cls-17,.cls-9{font-size:84px;font-family:BabaPro-Bold, BabaPro;font-weight:700;}.cls-1{fill:#ed1c24;letter-spacing:-0.13em;}.cls-2{letter-spacing:-0.13em;}.cls-3{letter-spacing:-0.11em;}.cls-4{letter-spacing:-0.1em;}.cls-5,.cls-6,.cls-7{fill:none;stroke-linecap:round;stroke-linejoin:round;}.cls-5{stroke:#29abe2;}.cls-5,.cls-6{stroke-width:15px;}.cls-6{stroke:#ed1c24;}.cls-7{stroke:#9d2bf7;stroke-width:14.77px;}.cls-17,.cls-8{fill:#9d2bf7;}.cls-9{fill:#29abe2;letter-spacing:-0.11em;}.cls-10{letter-spacing:-0.14em;}.cls-11{letter-spacing:-0.19em;}.cls-12{letter-spacing:-0.12em;}.cls-13{letter-spacing:-0.11em;}.cls-14{letter-spacing:-0.14em;}.cls-15{letter-spacing:-0.13em;}.cls-16{letter-spacing:-0.1em;}.cls-17{letter-spacing:-0.15em;}.cls-18{letter-spacing:-0.16em;}.cls-19{letter-spacing:-0.12em;}</style></defs><g id="Layer_2" data-name="Layer 2"><g id="Layer_1-2" data-name="Layer 1"><text class="cls-1" transform="translate(178.69 198.22)">B<tspan class="cls-2" x="58.49" y="0">o</tspan><tspan class="cls-3" x="130.26" y="0">o</tspan><tspan class="cls-4" x="204.14" y="0">k</tspan></text><polygon class="cls-5" points="7.5 7.5 7.5 162.5 74.5 64.5 7.5 7.5"/><polygon class="cls-6" points="93.45 86.23 20.11 191.75 84.99 178.29 82.23 143.05 125.21 120.42 93.45 86.23"/><polyline class="cls-7" points="25.87 215.79 112.83 200.56 108.97 160.54 135.82 146.36"/><path class="cls-8" d="M134.51,147.05c-5.22-1.61-10.4-7.5-13-12.11,8,3.82,17,6.09,25.95,5.28-5.8,6.83-8.54,15.71-10.28,24.4C134.93,159.4,132.94,152.67,134.51,147.05Z"/><text class="cls-9" transform="translate(215.79 111.49)">D<tspan class="cls-10" x="67.52" y="0">i</tspan><tspan class="cls-11" x="91.31" y="0">a</tspan><tspan class="cls-12" x="159.88" y="0">g</tspan><tspan class="cls-13" x="228.32" y="0">o</tspan><tspan class="cls-14" x="302.2" y="0">n</tspan><tspan class="cls-15" x="365.53" y="0">a</tspan><tspan class="cls-16" x="438.9" y="0">l</tspan></text><text class="cls-17" transform="translate(453.19 198.49)">S<tspan class="cls-18" x="55.84" y="0">t</tspan><tspan class="cls-13" x="113.11" y="0">o</tspan><tspan class="cls-19" x="187" y="0">r</tspan><tspan class="cls-4" x="250.25" y="0">e</tspan></text></g></g></svg>